<?xml version="1.0" encoding="utf-8"?>
<!-- Generator: Adobe Illustrator 24.0.0, SVG Export Plug-In . SVG Version: 6.00 Build 0)  -->
<svg version="1.1" id="レイヤー_1" xmlns="http://www.w3.org/2000/svg" xmlns:xlink="http://www.w3.org/1999/xlink" x="0px"
	 y="0px" viewBox="0 0 90 90" style="enable-background:new 0 0 90 90;" xml:space="preserve">
<style type="text/css">
	.st0{fill:#FFFFFF;}
</style>
<title>icon-twitter</title>
<g id="レイヤー_2_1_">
	<g id="Capa_1">
		<path class="st0" d="M77.7,24.7c-2.4,1.1-5,1.8-7.7,2.1c2.8-1.7,4.9-4.3,5.9-7.4c-2.6,1.6-5.5,2.7-8.5,3.2
			c-5.1-5.4-13.6-5.6-19-0.5c-3.4,3.3-4.9,8.1-3.8,12.7c-10.8-0.5-20.8-5.6-27.6-14c-3.6,6.1-1.7,14,4.2,17.9
			c-2.1-0.1-4.2-0.6-6.1-1.7c0,0.1,0,0.1,0,0.2c0,6.4,4.5,11.9,10.8,13.1c-1.2,0.3-2.3,0.5-3.5,0.5c-0.8,0-1.7-0.1-2.5-0.2
			c1.8,5.5,6.8,9.2,12.5,9.3c-4.8,3.7-10.6,5.7-16.6,5.7c-1.1,0-2.1-0.1-3.2-0.2c6.1,3.9,13.3,6,20.5,6C57.5,71.6,71,51.1,71,33.4
			c0-0.6,0-1.2,0-1.7C73.6,29.8,75.9,27.5,77.7,24.7L77.7,24.7z"/>
	</g>
</g>
</svg>
