<svg width="50" height="17" viewBox="0 0 50 17" fill="none" xmlns="http://www.w3.org/2000/svg">
<path fill-rule="evenodd" clip-rule="evenodd" d="M26.8087 3.19289V3.84003C26.5055 3.59401 26.1704 3.40147 25.8194 3.24102C25.2768 3.0164 24.7024 2.88269 24.1119 2.88269C23.5056 2.88269 22.9311 3.01105 22.3885 3.24102C21.8779 3.46565 21.3992 3.79189 21.0002 4.19836C20.6013 4.60483 20.2821 5.09152 20.0587 5.6103C19.8353 6.16117 19.7236 6.74413 19.7236 7.34848C19.7236 7.94748 19.8353 8.53044 20.0587 9.08666C20.2821 9.62149 20.6013 10.1082 21.0002 10.5146C21.3992 10.9211 21.8779 11.2474 22.3885 11.472C22.9311 11.6966 23.5056 11.8143 24.1119 11.8143C24.7024 11.8143 25.2768 11.702 25.8194 11.472C26.1704 11.3115 26.5055 11.1136 26.8087 10.873V11.5362H29.0109V3.19289H26.8087ZM24.1173 9.79798C22.7875 9.79798 21.713 8.70694 21.713 7.35383C21.713 6.01677 22.7821 4.92572 24.1173 4.92572C25.4311 4.92572 26.5002 6.01677 26.5002 7.35383C26.5002 8.70159 25.4311 9.79798 24.1173 9.79798Z" fill="#666666"/>
<path fill-rule="evenodd" clip-rule="evenodd" d="M43.2979 4.01119V0H41.0266V1.91468V11.5522H43.2979V7.46082C43.3138 6.35373 44.1809 5.45522 45.2447 5.45522C46.7234 5.45522 47.2234 6.2735 47.2234 7.50895V11.5469H49.4468V9.74452V7.76567C49.4468 5.77612 48.9734 3.28918 45.5372 3.28918C44.1809 3.28918 43.3138 3.99515 43.2979 4.01119ZM38.4628 7.64266C38.2553 7.30037 37.9787 7.02761 37.5958 6.79763C36.9043 6.39117 36.0532 6.24676 35.2979 6.13445C34.4468 6.00609 33.7713 5.88843 33.7713 5.45522C33.7713 4.80808 34.4947 4.67438 34.9947 4.67438C35.4149 4.67438 36.3936 4.81878 36.3936 5.38569H38.5319C38.5319 4.94714 38.4521 4.25186 37.633 3.63147C36.9734 3.14477 36.0745 2.88271 34.9841 2.88271C33.0372 2.88271 31.4468 4.11816 31.4468 5.64241C31.4468 6.39117 31.8511 6.99017 32.4255 7.33246C33.0372 7.72288 33.7606 7.89937 34.4362 7.9796C35.1436 8.07587 36.4628 8.27375 36.4628 9.06529C36.4628 9.69639 35.5479 9.94241 35.0798 9.94241C34.3723 9.94241 33.6489 9.56803 33.6489 8.80858H31.3032C31.3032 9.37549 31.4468 9.99054 32.234 10.8035C32.5532 11.1297 32.9734 11.3543 33.4255 11.5148C33.9255 11.7073 34.484 11.8089 35.0798 11.8089C35.5798 11.8089 36.0585 11.7287 36.5106 11.5843C36.9468 11.456 37.3457 11.2581 37.6862 11.0014C38.0372 10.7553 38.3138 10.4665 38.5053 10.1403C38.6968 9.79801 38.8085 9.44502 38.8085 9.07064C38.8085 8.77649 38.7766 8.51977 38.7128 8.27375C38.6543 8.04913 38.5585 7.8352 38.4628 7.64266ZM16.4681 3.15012L14.3936 8.04913L12.3032 3.15012H9.8617L13.2766 11.3276C13.2766 12.4935 11.7287 13.6755 10.8457 13.6755V16.125C11.9521 16.125 14.0053 15.4992 15.7713 11.3223C16.6223 9.28992 18.8138 3.14477 18.8138 3.14477H16.4681V3.15012ZM6.35638 11.5469H9.60107L4.71809 5.63706L9.33511 1.04826H6.45213L2.21809 5.26803V1.05361H0V11.5522H2.21809V8.59465L3.26064 7.49826L6.35638 11.5469Z" fill="#666666"/>
</svg>
