<svg width="98" height="32" viewBox="0 0 98 32" fill="none" xmlns="http://www.w3.org/2000/svg">
<g clip-path="url(#clip0)">
<path fill-rule="evenodd" clip-rule="evenodd" d="M71.5664 12.781V13.5447C71.2099 13.2632 70.8207 13.0268 70.4075 12.8408C69.7761 12.5638 69.0953 12.4208 68.4072 12.4208C67.7191 12.4208 67.0383 12.5638 66.4069 12.8408C65.8015 13.1106 65.2512 13.4926 64.7844 13.9671C64.3208 14.4469 63.9487 15.0093 63.6869 15.626C63.1662 16.9363 63.1662 18.3997 63.6869 19.71C63.9441 20.3351 64.3166 20.9049 64.7844 21.3889C65.2516 21.8626 65.8018 22.2442 66.4069 22.514C67.6881 23.049 69.1263 23.049 70.4075 22.514C70.8207 22.328 71.2099 22.0916 71.5664 21.81V22.5926H74.1392V12.781H71.5664ZM68.4223 20.5418C67.8604 20.552 67.3082 20.3929 66.836 20.0845C66.3638 19.7761 65.9928 19.3325 65.7703 18.8101C65.5479 18.2877 65.4839 17.7101 65.5866 17.1508C65.6893 16.5915 65.9541 16.0758 66.3471 15.6693C66.7402 15.2627 67.2439 14.9837 67.794 14.8678C68.3442 14.7518 68.916 14.8042 69.4367 15.0182C69.9573 15.2321 70.4034 15.5981 70.718 16.0694C71.0327 16.5408 71.2017 17.0962 71.2037 17.6651C71.2099 18.4194 70.9207 19.1455 70.3995 19.6846C69.8783 20.2237 69.1674 20.5319 68.4223 20.5418Z" fill="#26262A"/>
<path fill-rule="evenodd" clip-rule="evenodd" d="M90.8242 13.7419V9.02438H88.1703V22.6043H90.8242V17.7942C90.8427 16.4895 91.8556 15.4348 93.0945 15.4348C94.8213 15.4348 95.403 16.3945 95.403 17.8517V22.602H98.0002V18.1543C98.0002 15.8079 97.4485 12.8913 93.4329 12.8913C92.4956 12.8832 91.5807 13.1815 90.8242 13.7419ZM85.1803 18.0089C84.931 17.5969 84.5825 17.2558 84.1674 17.0175C83.3561 16.54 82.3664 16.3687 81.4845 16.235C80.489 16.0824 79.7009 15.9487 79.7009 15.4337C79.7009 14.6699 80.5458 14.5174 81.1276 14.5174C81.6155 14.5174 82.7605 14.6898 82.7605 15.3574H85.2556C85.2556 14.8424 85.1617 14.0211 84.2045 13.2972C83.435 12.7247 82.385 12.4185 81.109 12.4185C78.8387 12.4185 76.981 13.8686 76.981 15.6624C76.9801 16.0662 77.0857 16.4629 77.2867 16.8117C77.4878 17.1604 77.7771 17.4485 78.1248 17.6463C78.8387 18.1051 79.6824 18.3139 80.4705 18.4101C81.2968 18.5274 82.8346 18.7527 82.8346 19.6877C82.8346 20.4327 81.765 20.7178 81.2214 20.7178C80.3951 20.7178 79.5514 20.279 79.5514 19.3827H76.8106C76.8106 20.0503 76.9798 20.7753 77.8988 21.7291C78.2953 22.1098 78.7703 22.3967 79.2895 22.5691C79.9074 22.8035 80.5628 22.92 81.2226 22.9129C81.789 22.9113 82.3516 22.8202 82.8903 22.6431C83.3844 22.5001 83.8486 22.2672 84.2601 21.9556C84.6478 21.6931 84.9745 21.3485 85.2174 20.9454C85.4428 20.5641 85.5655 20.1297 85.5731 19.6854C85.5755 19.3687 85.5365 19.0531 85.4573 18.7468C85.3957 18.4901 85.3026 18.2422 85.1803 18.0089ZM59.4953 12.7294L57.0743 18.4864L54.6348 12.7294H51.7804L55.7717 22.3427C55.7717 23.7166 53.9649 25.1021 52.9324 25.1021V27.9871C54.2269 27.9871 56.6223 27.2538 58.6875 22.3427C59.6819 19.9541 62.2419 12.7294 62.2419 12.7294H59.4953ZM47.686 22.6043H51.4768L45.7772 15.653L51.1685 10.2563H47.7961L42.8487 15.2131V10.2586H40.2573V22.6043H42.8487V19.1234L44.0667 17.8329L47.686 22.6043Z" fill="#26262A"/>
<path fill-rule="evenodd" clip-rule="evenodd" d="M15.6534 2.78247e-06C12.5611 0.00325068 9.5391 0.934533 6.96949 2.67613C4.39989 4.41773 2.398 6.89145 1.21689 9.78461C0.0357853 12.6778 -0.271525 15.8605 0.33381 18.9304C0.939145 22.0003 2.42995 24.8197 4.61777 27.032C6.8056 29.2444 9.59223 30.7505 12.6254 31.3599C15.6586 31.9693 18.8021 31.6546 21.6587 30.4557C24.5153 29.2568 26.9566 27.2275 28.6741 24.6242C30.3917 22.021 31.3082 18.9607 31.308 15.8302C31.3069 13.7502 30.9012 11.6907 30.1139 9.76945C29.3265 7.84818 28.1731 6.10272 26.7194 4.63274C25.2658 3.16276 23.5403 1.99704 21.6416 1.20215C19.7429 0.40726 17.7081 -0.00123011 15.6534 2.78247e-06ZM19.5589 8.90588C20.0153 8.90588 20.4615 9.0429 20.841 9.29962C21.2205 9.55634 21.5162 9.92122 21.6908 10.3481C21.8654 10.775 21.911 11.2447 21.8219 11.6979C21.7328 12.151 21.5129 12.5672 21.1901 12.8939C20.8673 13.2205 20.456 13.4429 20.0084 13.5329C19.5607 13.6229 19.0967 13.5764 18.6751 13.3995C18.2535 13.2225 17.8932 12.9229 17.6398 12.5386C17.3864 12.1543 17.2513 11.7026 17.2515 11.2406C17.2515 10.9339 17.3112 10.6302 17.4272 10.3469C17.5432 10.0635 17.7132 9.80609 17.9274 9.58928C18.1417 9.37247 18.3961 9.20052 18.676 9.08326C18.956 8.966 19.256 8.90572 19.5589 8.90588ZM14.6915 22.6043H8.32907V9.02202H14.6892L14.6915 22.6043ZM24.38 21.9849L23.5618 22.6043H18.8381L15.6383 18.2634C15.479 18.0455 15.4111 17.7727 15.4495 17.5044C15.488 17.2361 15.6295 16.9941 15.8435 16.8309L18.8821 14.5338C19.0973 14.3718 19.3672 14.3027 19.6326 14.3416C19.898 14.3805 20.1374 14.5243 20.2983 14.7414L24.5863 20.5489C24.7467 20.7673 24.8148 21.0413 24.7757 21.3106C24.7366 21.5799 24.5934 21.8224 24.3777 21.9849H24.38Z" fill="#26262A"/>
</g>
<defs>
<clipPath id="clip0">
<rect width="98" height="31.6615" fill="white"/>
</clipPath>
</defs>
</svg>
